<svg width="29" height="18" viewBox="0 0 29 18" fill="none" xmlns="http://www.w3.org/2000/svg">
<path d="M26.4883 0.00466919H3.41956C3.32348 0.00466919 3.22723 0.00466919 3.13133 0.00522946C3.05026 0.00580671 2.96937 0.00670654 2.88849 0.00891367C2.71209 0.0136845 2.53418 0.0240919 2.35998 0.0553992C2.18301 0.0872497 2.01832 0.139202 1.85766 0.221002C1.69971 0.301324 1.55511 0.406383 1.4298 0.531748C1.30443 0.657113 1.19937 0.801476 1.11907 0.959591C1.03725 1.12025 0.985266 1.28499 0.953636 1.4621C0.922161 1.63635 0.911684 1.81423 0.90693 1.99044C0.904757 2.07132 0.903824 2.1522 0.903296 2.23307C0.902736 2.32918 0.902923 2.42523 0.902923 2.52151V15.4787C0.902923 15.575 0.902736 15.6708 0.903296 15.7671C0.903824 15.848 0.904757 15.9289 0.90693 16.0098C0.911684 16.1858 0.922161 16.3637 0.953636 16.5379C0.985266 16.7151 1.03725 16.8797 1.11907 17.0404C1.19937 17.1985 1.30443 17.3431 1.4298 17.4683C1.55511 17.5938 1.69971 17.6989 1.85766 17.779C2.01832 17.861 2.18301 17.913 2.35998 17.9448C2.53418 17.9759 2.71209 17.9865 2.88849 17.9913C2.96937 17.9931 3.05026 17.9942 3.13133 17.9946C3.22723 17.9953 3.32348 17.9953 3.41956 17.9953H26.4883C26.5842 17.9953 26.6804 17.9953 26.7763 17.9946C26.8572 17.9942 26.9381 17.9931 27.0193 17.9913C27.1954 17.9865 27.3732 17.9759 27.5479 17.9448C27.7246 17.913 27.8893 17.861 28.05 17.779C28.2081 17.6989 28.3523 17.5938 28.4779 17.4683C28.603 17.3431 28.7081 17.1985 28.7886 17.0404C28.8706 16.8797 28.9225 16.7151 28.954 16.5379C28.9855 16.3637 28.9957 16.1858 29.0005 16.0098C29.0027 15.9289 29.0038 15.848 29.0042 15.7671C29.0049 15.6708 29.0049 15.575 29.0049 15.4787V2.52151C29.0049 2.42523 29.0049 2.32918 29.0042 2.23307C29.0038 2.1522 29.0027 2.07132 29.0005 1.99044C28.9957 1.81423 28.9855 1.63635 28.954 1.4621C28.9225 1.28499 28.8706 1.12025 28.7886 0.959591C28.7081 0.801476 28.603 0.657113 28.4779 0.531748C28.3523 0.406383 28.2081 0.301324 28.05 0.221002C27.8893 0.139202 27.7246 0.0872497 27.5479 0.0553992C27.3732 0.0240919 27.1954 0.0136845 27.0193 0.00891367C26.9381 0.00670654 26.8572 0.00580671 26.7763 0.00522946C26.6804 0.00466919 26.5842 0.00466919 26.4883 0.00466919Z" fill="black"/>
<path d="M26.4885 0.60434L26.7723 0.604883C26.8492 0.605426 26.9261 0.606258 27.0034 0.608363C27.1378 0.611997 27.2951 0.61928 27.4417 0.645562C27.5692 0.668516 27.6761 0.703423 27.7787 0.755647C27.8799 0.807107 27.9727 0.874543 28.0537 0.955443C28.1351 1.03689 28.2026 1.12982 28.2547 1.23222C28.3067 1.334 28.3414 1.44038 28.3642 1.56877C28.3904 1.71379 28.3976 1.87152 28.4013 2.00682C28.4034 2.08318 28.4044 2.15955 28.4048 2.23773C28.4055 2.33228 28.4055 2.42678 28.4055 2.52152V15.4787C28.4055 15.5734 28.4055 15.6677 28.4048 15.7643C28.4044 15.8407 28.4034 15.917 28.4013 15.9935C28.3976 16.1286 28.3904 16.2863 28.3639 16.433C28.3414 16.5596 28.3067 16.666 28.2545 16.7683C28.2025 16.8705 28.1351 16.9633 28.0541 17.0442C27.9726 17.1257 27.8801 17.193 27.7777 17.2449C27.6758 17.2969 27.5691 17.3317 27.4429 17.3544C27.2933 17.3811 27.1295 17.3884 27.006 17.3918C26.9284 17.3935 26.8511 17.3946 26.7719 17.395C26.6776 17.3957 26.5829 17.3957 26.4885 17.3957H3.4198C3.41854 17.3957 3.41732 17.3957 3.41605 17.3957C3.32277 17.3957 3.22931 17.3957 3.13433 17.3949C3.0569 17.3946 2.97963 17.3935 2.90493 17.3919C2.77868 17.3884 2.61469 17.3811 2.46632 17.3546C2.33904 17.3317 2.23233 17.2969 2.12917 17.2442C2.02766 17.1927 1.93525 17.1256 1.85374 17.0439C1.77286 16.9632 1.70564 16.8706 1.65367 16.7683C1.60165 16.6661 1.56685 16.5594 1.54396 16.4313C1.51751 16.2848 1.51024 16.1278 1.50661 15.9937C1.50454 15.9168 1.50367 15.84 1.50318 15.7637L1.50281 15.5382L1.50282 15.4787V2.52152L1.50281 2.46199L1.50316 2.23702C1.50367 2.16019 1.50454 2.08339 1.50661 2.00663C1.51024 1.87232 1.51751 1.71524 1.54418 1.56756C1.56687 1.44059 1.60165 1.33386 1.65394 1.23116C1.70551 1.12965 1.77284 1.03699 1.85415 0.955697C1.93513 0.874679 2.02785 0.807327 2.13001 0.755375C2.23206 0.703406 2.33897 0.668516 2.46625 0.645613C2.61291 0.619263 2.77031 0.611997 2.90512 0.608346C2.98196 0.606258 3.0588 0.605426 3.13506 0.6049L3.4198 0.60434H26.4885Z" fill="white"/>
<path d="M8.57472 6.05569C8.81534 5.75473 8.97862 5.35063 8.93555 4.93768C8.58332 4.9552 8.15349 5.17006 7.90464 5.47126C7.6812 5.72919 7.48344 6.15021 7.535 6.54584C7.93039 6.58014 8.32542 6.3482 8.57472 6.05569Z" fill="black"/>
<path d="M8.93099 6.62307C8.35678 6.58887 7.86856 6.94896 7.59434 6.94896C7.31997 6.94896 6.90006 6.64031 6.44589 6.64863C5.85476 6.65731 5.30625 6.99154 5.00628 7.52312C4.38928 8.58655 4.84346 10.164 5.44345 11.0301C5.73482 11.4586 6.08598 11.9304 6.54867 11.9134C6.98584 11.8963 7.1572 11.6304 7.6886 11.6304C8.21961 11.6304 8.37396 11.9134 8.83673 11.9049C9.31664 11.8963 9.61667 11.4761 9.90803 11.0472C10.2423 10.5588 10.3791 10.0871 10.3877 10.0613C10.3791 10.0527 9.46234 9.70098 9.45384 8.64639C9.44518 7.76337 10.1736 7.34335 10.2079 7.3173C9.79654 6.70891 9.15381 6.64031 8.93099 6.62307Z" fill="black"/>
<path d="M13.9308 5.42806C15.1789 5.42806 16.0479 6.28834 16.0479 7.54085C16.0479 8.79783 15.161 9.66259 13.8995 9.66259H12.5177V11.8601H11.5193V5.42805L13.9308 5.42806ZM12.5177 8.82457H13.6633C14.5325 8.82457 15.0272 8.3566 15.0272 7.54532C15.0272 6.73413 14.5325 6.27054 13.6677 6.27054H12.5177V8.82457Z" fill="black"/>
<path d="M16.3087 10.5273C16.3087 9.70713 16.9372 9.20348 18.0516 9.14106L19.3353 9.06531V8.7043C19.3353 8.18276 18.9831 7.87075 18.3949 7.87075C17.8376 7.87075 17.4899 8.13814 17.4053 8.55719H16.496C16.5495 7.71023 17.2715 7.08621 18.4305 7.08621C19.5671 7.08621 20.2936 7.68796 20.2936 8.62846V11.8601H19.3709V11.0889H19.3487C19.0768 11.6105 18.4839 11.9403 17.8689 11.9403C16.9506 11.9403 16.3087 11.3697 16.3087 10.5273ZM19.3353 10.1039V9.73396L18.1808 9.80523C17.6058 9.84538 17.2804 10.0994 17.2804 10.5006C17.2804 10.9106 17.6192 11.1781 18.1362 11.1781C18.8093 11.1781 19.3353 10.7145 19.3353 10.1039Z" fill="black"/>
<path d="M21.1648 13.5851V12.805C21.236 12.8228 21.3964 12.8228 21.4767 12.8228C21.9224 12.8228 22.1632 12.6357 22.3102 12.1543C22.3102 12.1453 22.395 11.869 22.395 11.8645L20.7012 7.1709H21.7441L22.9299 10.9865H22.9476L24.1334 7.1709H25.1497L23.3933 12.1052C22.9923 13.2419 22.5288 13.6074 21.557 13.6074C21.4767 13.6074 21.236 13.5984 21.1648 13.5851Z" fill="black"/>
</svg>
