<svg width="51" height="18" viewBox="0 0 51 18" fill="none" xmlns="http://www.w3.org/2000/svg">
<rect x="1.24072" y="0.615975" width="49.3192" height="16.768" rx="8.38402" fill="white"/>
<rect x="1.24072" y="0.615975" width="49.3192" height="16.768" rx="8.38402" stroke="#0033A0" stroke-width="0.638779"/>
<path fill-rule="evenodd" clip-rule="evenodd" d="M22.001 8.98355C22.001 11.0342 20.3844 12.7506 18.2733 13.0998V10.7954C18.2733 9.70745 17.3806 8.81797 16.2916 8.81797H13.2474C12.376 8.81797 11.6616 8.11106 11.6616 7.24069V4.80365H17.4836C19.9684 4.80259 22.001 6.6845 22.001 8.98355Z" fill="#E63934"/>
<mask id="mask0_77_36" style="mask-type:luminance" maskUnits="userSpaceOnUse" x="5" y="4" width="12" height="10">
<path d="M5.81866 4.84341H16.6598V13.1964H5.81866V4.84341Z" fill="white"/>
</mask>
<g mask="url(#mask0_77_36)">
<path fill-rule="evenodd" clip-rule="evenodd" d="M16.6601 10.7407V13.1958H10.3372C7.85236 13.1958 5.81866 11.315 5.81866 9.01487C5.81866 6.80285 7.7027 4.97719 10.0591 4.84239V7.19452C10.0591 8.28142 10.9507 9.15816 12.0408 9.15816H15.0743C15.9468 9.15816 16.6601 9.87038 16.6601 10.7407Z" fill="#00466E"/>
</g>
<path d="M25.6953 13V4.79265H28.9334C29.5559 4.79265 30.0862 4.91154 30.5244 5.14932C30.9625 5.38443 31.2965 5.7117 31.5262 6.13116C31.7587 6.54793 31.8749 7.02883 31.8749 7.57385C31.8749 8.11887 31.7573 8.59977 31.5222 9.01655C31.2871 9.43333 30.9465 9.75794 30.5003 9.99037C30.0568 10.2228 29.5198 10.339 28.8893 10.339H26.8254V8.94842H28.6088C28.9427 8.94842 29.2179 8.89098 29.4343 8.7761C29.6534 8.65855 29.8164 8.49691 29.9232 8.29119C30.0328 8.0828 30.0875 7.84369 30.0875 7.57385C30.0875 7.30134 30.0328 7.06357 29.9232 6.86052C29.8164 6.6548 29.6534 6.49584 29.4343 6.38363C29.2152 6.26875 28.9374 6.21131 28.6008 6.21131H27.4306V13H25.6953ZM34.5599 13.1162C34.1672 13.1162 33.8172 13.0481 33.5099 12.9118C33.2027 12.7729 32.9596 12.5685 32.7806 12.2987C32.6042 12.0262 32.5161 11.6869 32.5161 11.2808C32.5161 10.9388 32.5789 10.6516 32.7044 10.4192C32.83 10.1867 33.001 9.99972 33.2174 9.85812C33.4338 9.71653 33.6796 9.60966 33.9548 9.53753C34.2326 9.46539 34.5238 9.41463 34.8284 9.38524C35.1864 9.34784 35.4749 9.31311 35.694 9.28105C35.9131 9.24631 36.0721 9.19555 36.1709 9.12876C36.2698 9.06197 36.3192 8.96312 36.3192 8.83221V8.80816C36.3192 8.55435 36.239 8.35799 36.0787 8.21906C35.9211 8.08013 35.6967 8.01067 35.4055 8.01067C35.0982 8.01067 34.8538 8.0788 34.6721 8.21505C34.4904 8.34864 34.3702 8.51695 34.3114 8.72L32.7325 8.59176C32.8126 8.21772 32.9703 7.89445 33.2054 7.62194C33.4405 7.34676 33.7437 7.1357 34.1151 6.98876C34.4891 6.83915 34.9219 6.76434 35.4135 6.76434C35.7555 6.76434 36.0828 6.80441 36.3953 6.88456C36.7106 6.96471 36.9898 7.08895 37.2329 7.25726C37.4787 7.42558 37.6724 7.64198 37.814 7.90648C37.9556 8.1683 38.0264 8.48222 38.0264 8.84824V13H36.4074V12.1464H36.3593C36.2604 12.3388 36.1282 12.5084 35.9625 12.6554C35.7969 12.7996 35.5978 12.9132 35.3654 12.996C35.133 13.0761 34.8645 13.1162 34.5599 13.1162ZM35.0488 11.938C35.3 11.938 35.5217 11.8886 35.7141 11.7897C35.9064 11.6882 36.0574 11.552 36.1669 11.381C36.2764 11.21 36.3312 11.0163 36.3312 10.7999V10.1467C36.2778 10.1814 36.2043 10.2135 36.1108 10.2428C36.02 10.2696 35.9171 10.2949 35.8022 10.319C35.6873 10.3404 35.5725 10.3604 35.4576 10.3791C35.3427 10.3951 35.2385 10.4098 35.145 10.4232C34.9446 10.4526 34.7696 10.4993 34.62 10.5634C34.4704 10.6276 34.3542 10.7144 34.2714 10.8239C34.1885 10.9308 34.1471 11.0644 34.1471 11.2247C34.1471 11.4571 34.2313 11.6348 34.3996 11.7577C34.5706 11.8779 34.787 11.938 35.0488 11.938ZM40.1844 15.3083C39.968 15.3083 39.765 15.291 39.5753 15.2562C39.3883 15.2242 39.2333 15.1827 39.1104 15.132L39.4951 13.8576C39.6955 13.9191 39.8758 13.9524 40.0361 13.9578C40.1991 13.9631 40.3394 13.9257 40.4569 13.8456C40.5772 13.7654 40.6747 13.6292 40.7495 13.4368L40.8497 13.1763L38.6415 6.84449H40.4369L41.7113 11.3649H41.7754L43.0618 6.84449H44.8692L42.4767 13.6652C42.3618 13.9965 42.2055 14.2851 42.0078 14.5309C41.8128 14.7793 41.5657 14.9704 41.2664 15.1039C40.9672 15.2402 40.6065 15.3083 40.1844 15.3083Z" fill="#0033A0"/>
</svg>
