<svg width="37" height="20" viewBox="0 0 37 20" fill="none" xmlns="http://www.w3.org/2000/svg">
<g clip-path="url(#clip0_82_65)">
<path d="M26.9746 0.433372H10.1489C4.89084 0.433372 0.588806 4.7354 0.588806 9.99344C0.588806 15.2515 4.89084 19.5535 10.1489 19.5535H26.9746C32.2326 19.5535 36.5347 15.2515 36.5347 9.99344C36.5347 4.7354 32.2326 0.433372 26.9746 0.433372Z" fill="white"/>
<path d="M26.9746 1.20774C28.1553 1.20774 29.3025 1.44196 30.3828 1.90084C31.4296 2.34539 32.3665 2.98113 33.1791 3.78896C33.9869 4.59678 34.6227 5.53845 35.0672 6.58528C35.5261 7.66557 35.7603 8.81277 35.7603 9.99344C35.7603 11.1741 35.5261 12.3213 35.0672 13.4016C34.6227 14.4484 33.9869 15.3853 33.1791 16.1979C32.3713 17.0058 31.4296 17.6415 30.3828 18.086C29.3025 18.5449 28.1553 18.7791 26.9746 18.7791H10.1489C8.96821 18.7791 7.821 18.5449 6.74071 18.086C5.69388 17.6415 4.757 17.0058 3.94439 16.1979C3.13657 15.3901 2.50082 14.4484 2.05628 13.4016C1.59739 12.3213 1.36317 11.1741 1.36317 9.99344C1.36317 8.81277 1.59739 7.66557 2.05628 6.58528C2.50082 5.53845 3.13657 4.60156 3.94439 3.78896C4.75222 2.98113 5.69388 2.34539 6.74071 1.90084C7.821 1.44196 8.96821 1.20774 10.1489 1.20774H26.9746ZM26.9746 0.433372H10.1489C4.89084 0.433372 0.588806 4.7354 0.588806 9.99344C0.588806 15.2515 4.89084 19.5535 10.1489 19.5535H26.9746C32.2326 19.5535 36.5347 15.2515 36.5347 9.99344C36.5347 4.7354 32.2326 0.433372 26.9746 0.433372Z" fill="#3C4043"/>
<path d="M17.7301 10.6722V13.5641H16.8123V6.42277H19.2454C19.862 6.42277 20.3878 6.62831 20.818 7.03939C21.2578 7.45048 21.4776 7.95238 21.4776 8.5451C21.4776 9.15217 21.2578 9.65407 20.818 10.0604C20.3926 10.4667 19.8668 10.6674 19.2454 10.6674H17.7301V10.6722ZM17.7301 7.3023V9.79269H19.2645C19.6278 9.79269 19.9337 9.66841 20.1727 9.42463C20.4165 9.18085 20.5407 8.88449 20.5407 8.54988C20.5407 8.22006 20.4165 7.92848 20.1727 7.6847C19.9337 7.43136 19.6325 7.30707 19.2645 7.30707H17.7301V7.3023Z" fill="#3C4043"/>
<path d="M23.8772 8.51644C24.556 8.51644 25.0913 8.69808 25.4833 9.06136C25.8753 9.42465 26.0712 9.92177 26.0712 10.5527V13.5642H25.1965V12.8854H25.1582C24.7806 13.4447 24.2739 13.7219 23.643 13.7219C23.1028 13.7219 22.6535 13.5642 22.2902 13.2439C21.9269 12.9236 21.7453 12.5269 21.7453 12.0489C21.7453 11.5422 21.9365 11.1407 22.3189 10.8443C22.7013 10.5432 23.2128 10.395 23.8485 10.395C24.3934 10.395 24.8428 10.4954 25.1917 10.6961V10.4858C25.1917 10.1656 25.0674 9.89787 24.8141 9.67321C24.5607 9.44855 24.2644 9.33861 23.925 9.33861C23.4135 9.33861 23.0072 9.55371 22.7109 9.98869L21.903 9.48201C22.3476 8.8367 23.0072 8.51644 23.8772 8.51644ZM22.6917 12.0632C22.6917 12.3022 22.7921 12.503 22.9977 12.6607C23.1984 12.8185 23.4374 12.8997 23.7099 12.8997C24.0971 12.8997 24.4412 12.7563 24.7424 12.4695C25.0435 12.1827 25.1965 11.8481 25.1965 11.4609C24.9097 11.2363 24.5129 11.1216 24.0015 11.1216C23.6286 11.1216 23.3179 11.2124 23.0694 11.3892C22.816 11.5757 22.6917 11.8003 22.6917 12.0632Z" fill="#3C4043"/>
<path d="M31.0616 8.67418L28.0024 15.7104H27.056L28.1936 13.2487L26.1765 8.67418H27.1755L28.6286 12.1827H28.6477L30.0626 8.67418H31.0616Z" fill="#3C4043"/>
<path d="M14.0795 10.0891C14.0795 9.78983 14.0528 9.50351 14.003 9.22818H10.1561V10.8056L12.3716 10.8061C12.2817 11.3309 11.9926 11.7783 11.5494 12.0766V13.1H12.8683C13.6383 12.3873 14.0795 11.3338 14.0795 10.0891Z" fill="#4285F4"/>
<path d="M11.55 12.0766C11.1829 12.3242 10.7101 12.4691 10.1571 12.4691C9.08875 12.4691 8.18246 11.7492 7.8579 10.7788H6.4975V11.8343C7.17148 13.1717 8.55674 14.0895 10.1571 14.0895C11.2632 14.0895 12.1924 13.7257 12.8688 13.0995L11.55 12.0766Z" fill="#34A853"/>
<path d="M7.72977 9.99584C7.72977 9.72338 7.77518 9.46 7.85787 9.21239V8.15696H6.49747C6.2188 8.71001 6.06201 9.33428 6.06201 9.99584C6.06201 10.6574 6.21927 11.2817 6.49747 11.8347L7.85787 10.7793C7.77518 10.5317 7.72977 10.2683 7.72977 9.99584Z" fill="#FABB05"/>
<path d="M10.1571 7.5222C10.7608 7.5222 11.3014 7.73013 11.7283 8.13644L12.897 6.96868C12.1872 6.3076 11.2618 5.90177 10.1571 5.90177C8.55722 5.90177 7.17148 6.81954 6.4975 8.15699L7.8579 9.21242C8.18246 8.24208 9.08876 7.5222 10.1571 7.5222Z" fill="#E94235"/>
</g>
<defs>
<clipPath id="clip0_82_65">
<rect width="35.9083" height="19" fill="white" transform="translate(0.622131 0.5)"/>
</clipPath>
</defs>
</svg>
