<svg width="22" height="22" viewBox="0 0 22 22" fill="none" xmlns="http://www.w3.org/2000/svg">
<rect width="22" height="22" fill="#FADB5F"/>
<path d="M9.17144 6.07197C9.48208 6.24812 9.73269 6.51345 9.89084 6.83361C10.0633 7.16889 10.1494 7.57149 10.1491 8.04141V11.0968H8.83308V8.21917C8.83308 7.80557 8.72968 7.48745 8.52288 7.26481C8.31608 7.04217 8.03405 6.931 7.67677 6.93129C7.31333 6.93129 7.02659 7.04247 6.81657 7.26481C6.60654 7.48716 6.50153 7.80528 6.50153 8.21917V11.0959H5.18549V4.13905H6.50153V6.53661C6.67847 6.30494 6.91152 6.12217 7.17869 6.00553C7.47435 5.87405 7.79497 5.80815 8.11852 5.81237C8.48611 5.80579 8.84905 5.89527 9.17144 6.07197Z" fill="#1A1C21"/>
<path d="M13.4164 6.043C13.731 5.87915 14.0816 5.7967 14.4363 5.8032C14.8619 5.79775 15.2805 5.91178 15.6445 6.13232C16.0113 6.35841 16.3077 6.68238 16.5003 7.06776C16.7101 7.47197 16.8151 7.94042 16.8154 8.47312C16.8157 9.00581 16.7106 9.47749 16.5003 9.88816C16.3084 10.2788 16.0124 10.6089 15.645 10.8421C15.283 11.0684 14.8636 11.1859 14.4367 11.1809C14.085 11.1883 13.7371 11.1073 13.4247 10.9455C13.1486 10.8015 12.907 10.5994 12.7163 10.3532V13.578H11.3998V5.88768H12.7163V6.64008C12.9001 6.38933 13.1398 6.18489 13.4164 6.043ZM15.278 7.66C15.1603 7.4424 14.9845 7.26175 14.7702 7.13816C14.5626 7.01995 14.3276 6.95835 14.0887 6.95952C13.8521 6.959 13.6198 7.02239 13.4164 7.143C13.2016 7.27005 13.0259 7.45379 12.9086 7.67408C12.7819 7.92812 12.7159 8.20813 12.7159 8.49204C12.7159 8.77594 12.7819 9.05596 12.9086 9.31C13.0261 9.53013 13.2017 9.71383 13.4164 9.84108C13.6216 9.962 13.8557 10.0254 14.094 10.0245C14.3322 10.0237 14.5658 9.95862 14.7702 9.83624C14.9845 9.70636 15.1599 9.52125 15.278 9.30032C15.4059 9.06829 15.4701 8.79256 15.4707 8.47312C15.4778 8.18998 15.4114 7.90983 15.278 7.66Z" fill="#1A1C21"/>
<path d="M10.5493 17.8609C8.25074 17.8609 6.11498 16.9096 4.53626 15.1822C4.41956 15.0548 4.35825 14.8863 4.3658 14.7137C4.37335 14.5411 4.44915 14.3786 4.57652 14.2619C4.70389 14.1452 4.8724 14.0839 5.04499 14.0915C5.21757 14.099 5.38008 14.1748 5.49678 14.3022C6.82602 15.7568 8.62078 16.5576 10.5493 16.5576C12.9425 16.5576 15.1407 15.3036 16.4295 13.2026C16.4736 13.1288 16.5321 13.0644 16.6013 13.0133C16.6705 12.9621 16.7492 12.9252 16.8328 12.9047C16.9164 12.8842 17.0033 12.8805 17.0883 12.8937C17.1733 12.907 17.2549 12.937 17.3283 12.9821C17.4016 13.0271 17.4654 13.0862 17.5157 13.156C17.5661 13.2258 17.6021 13.3049 17.6216 13.3888C17.6412 13.4726 17.644 13.5595 17.6297 13.6443C17.6155 13.7292 17.5845 13.8105 17.5387 13.8833C16.0115 16.3746 13.3983 17.8609 10.5493 17.8609Z" fill="#1A1C21"/>
</svg>
