<svg width="37" height="24" viewBox="0 0 37 24" fill="none" xmlns="http://www.w3.org/2000/svg">
<path d="M23.0255 3.34232H13.3859V20.6577H23.0255V3.34232Z" fill="#FF5F00"/>
<path d="M13.9981 12C13.9965 10.3324 14.3746 8.68632 15.1036 7.18636C15.8326 5.6864 16.8934 4.37188 18.2058 3.34232C16.5806 2.06542 14.6288 1.27133 12.5735 1.05082C10.5181 0.830315 8.44219 1.19227 6.58293 2.09534C4.72367 2.99841 3.15609 4.40615 2.05939 6.15765C0.962686 7.90915 0.381104 9.93373 0.381104 12C0.381104 14.0663 0.962686 16.0909 2.05939 17.8424C3.15609 19.5939 4.72367 21.0016 6.58293 21.9047C8.44219 22.8077 10.5181 23.1697 12.5735 22.9492C14.6288 22.7287 16.5806 21.9346 18.2058 20.6577C16.8934 19.6281 15.8326 18.3136 15.1036 16.8136C14.3746 15.3137 13.9966 13.6676 13.9981 12Z" fill="#EB001B"/>
<path d="M36.0299 12C36.03 14.0662 35.4485 16.0908 34.3518 17.8423C33.2552 19.5938 31.6876 21.0016 29.8284 21.9046C27.9692 22.8077 25.8933 23.1697 23.838 22.9492C21.7827 22.7287 19.8309 21.9346 18.2057 20.6577C19.517 19.6271 20.577 18.3124 21.3059 16.8126C22.0347 15.3129 22.4135 13.6673 22.4135 12C22.4135 10.3327 22.0347 8.6871 21.3059 7.18737C20.577 5.68765 19.517 4.37292 18.2057 3.34231C19.8309 2.06541 21.7827 1.27133 23.838 1.05082C25.8933 0.830315 27.9692 1.19229 29.8284 2.09537C31.6876 2.99844 33.2552 4.40618 34.3518 6.15768C35.4485 7.90918 36.03 9.93376 36.0299 12Z" fill="#F79E1B"/>
<path d="M34.9789 18.8237V18.4692H35.1219V18.397H34.7577V18.4692H34.9008V18.8237H34.9789ZM35.6859 18.8237V18.3963H35.5743L35.4459 18.6903L35.3175 18.3963H35.2058V18.8237H35.2846V18.5013L35.405 18.7793H35.4868L35.6072 18.5006V18.8237H35.6859Z" fill="#F79E1B"/>
</svg>
