<svg width="45" height="18" viewBox="0 0 45 18" fill="none" xmlns="http://www.w3.org/2000/svg">
<g clip-path="url(#clip0_85_89)">
<path d="M28.2382 2.01595C25.3779 2.01595 22.8218 3.4985 22.8218 6.23763C22.8218 9.37886 27.3551 9.5958 27.3551 11.1739C27.3551 11.8383 26.5936 12.4332 25.2931 12.4332C23.4473 12.4332 22.0678 11.602 22.0678 11.602L21.4775 14.3661C21.4775 14.3661 23.0667 15.0682 25.1766 15.0682C28.3038 15.0682 30.7645 13.5128 30.7645 10.7269C30.7645 7.40758 26.2124 7.19705 26.2124 5.73237C26.2124 5.21179 26.8374 4.64148 28.1343 4.64148C29.5975 4.64148 30.7913 5.24594 30.7913 5.24594L31.369 2.57633C31.369 2.57633 30.0701 2.01595 28.2382 2.01595ZM2.06928 2.21745L2 2.62041C2 2.62041 3.20335 2.84062 4.28713 3.27995C5.68258 3.78367 5.78202 4.07695 6.01703 4.98779L8.578 14.8604H12.0111L17.3 2.21745H13.8748L10.4764 10.8134L9.08963 3.52705C8.96245 2.69315 8.31824 2.21745 7.5297 2.21745H2.06928ZM18.6773 2.21745L15.9903 14.8603H19.2565L21.9341 2.21741H18.6773V2.21745ZM36.894 2.21745C36.1064 2.21745 35.6891 2.63912 35.3829 3.37596L30.5977 14.8603H34.0229L34.6856 12.9462H38.8584L39.2614 14.8603H42.2836L39.647 2.21745H36.894ZM37.3394 5.63317L38.3547 10.3774H35.6347L37.3394 5.63317Z" fill="#1434CB"/>
</g>
<defs>
<clipPath id="clip0_85_89">
<rect width="40.2836" height="13.0841" fill="white" transform="translate(2 2)"/>
</clipPath>
</defs>
</svg>
