<svg width="867" height="867" viewBox="0 0 867 867" fill="none" xmlns="http://www.w3.org/2000/svg">
<rect width="867" height="867" fill="#FFD54D"/>
<path d="M803.241 300.048L765.002 307.78C763.468 308.087 762.46 309.568 762.74 311.111C764.318 319.93 768.973 348.772 769.271 382.584C769.719 433.376 760.347 472.492 742.166 495.706C728.911 512.634 710.738 521.374 686.622 522.426C666.915 523.294 651.135 517.797 638.652 509.513C637.328 508.627 636.96 506.848 637.837 505.515C638.45 504.586 639.055 503.648 639.651 502.701C660.734 469.398 673.314 426.907 673.314 389.045C673.314 367.716 669.106 349.192 661.146 335.473C650.583 317.265 633.629 307.236 613.405 307.236C589.726 307.236 569.844 319.483 557.44 341.715C534.489 382.838 540.591 451.812 571.641 502.149C572.465 503.49 573.307 504.805 574.157 506.111C575.008 507.409 574.674 509.145 573.412 510.039C559.772 519.655 546.78 522.303 536.611 522.303C515.492 522.303 498.188 514.948 483.688 499.826C435.823 449.892 434.692 336.99 435.043 312.189C435.069 310.585 433.772 309.27 432.168 309.27H390.518C389.265 309.27 388.151 310.085 387.774 311.278L334.422 480.154C333.589 482.784 329.89 482.854 328.969 480.25L268.648 311.181C268.236 310.033 267.157 309.27 265.939 309.27H222.852C221.598 309.27 220.485 310.085 220.108 311.278L166.782 480.145C165.949 482.775 162.25 482.845 161.329 480.242L100.999 311.181C100.587 310.033 99.5083 309.27 98.2898 309.27H56.886C54.896 309.27 53.5021 311.243 54.1684 313.119L143.472 563.426C143.884 564.575 144.971 565.337 146.189 565.337L184.718 565.276C185.972 565.276 187.085 564.461 187.462 563.268L242.918 387.668C243.751 385.038 247.45 384.968 248.371 387.572L311.103 563.435C311.515 564.583 312.602 565.346 313.821 565.346L352.349 565.285C353.603 565.285 354.716 564.469 355.093 563.277L397.084 430.352C397.961 427.573 401.95 427.705 402.625 430.545C411.409 467.294 426.268 504.586 451.305 530.745C474.378 554.844 503.07 567.064 536.593 567.064C561.008 567.064 584.107 558.622 604.366 542.685C605.392 541.878 606.821 541.861 607.864 542.641C629.351 558.789 654.738 567.283 682.519 567.283C684.518 567.283 686.534 567.24 688.559 567.152C726.035 565.513 755.938 550.741 777.442 523.241C831.741 453.802 810.614 323.919 806.625 302.353C806.336 300.776 804.802 299.741 803.224 300.057L803.241 300.048ZM608.513 467.101C607.417 469.214 604.393 469.17 603.358 467.031C585.142 429.537 584.528 385.012 596.52 363.526C602.227 353.304 608.539 351.989 613.405 351.989C616.35 351.989 619.252 352.445 622.434 357.924C626.379 364.735 628.553 375.781 628.553 389.036C628.553 414.143 621.031 442.976 608.513 467.101Z" fill="black" stroke="#1A1A1A" stroke-width="2" stroke-miterlimit="10"/>
</svg>
