<svg width="199" height="24" viewBox="0 0 199 24" fill="none" xmlns="http://www.w3.org/2000/svg">
<path d="M14.4381 6.57124H8.39362V17.4288H14.4381V6.57124Z" fill="#FF5F00"/>
<path d="M8.7774 12C8.77644 10.9543 9.0135 9.92218 9.47061 8.98163C9.92772 8.04109 10.5929 7.21683 11.4158 6.57125C10.3968 5.77057 9.1729 5.27265 7.88411 5.13438C6.59532 4.99611 5.29362 5.22307 4.12778 5.78934C2.96194 6.3556 1.979 7.23832 1.29131 8.33658C0.603631 9.43485 0.238953 10.7044 0.238953 12C0.238953 13.2957 0.603631 14.5652 1.29131 15.6634C1.979 16.7617 2.96194 17.6444 4.12778 18.2107C5.29362 18.7769 6.59532 19.0039 7.88411 18.8656C9.1729 18.7274 10.3968 18.2294 11.4158 17.4288C10.5929 16.7832 9.92774 15.9589 9.47062 15.0184C9.01351 14.0778 8.77645 13.0457 8.7774 12Z" fill="#EB001B"/>
<path d="M22.5924 12C22.5924 13.2956 22.2278 14.5651 21.5401 15.6634C20.8525 16.7617 19.8696 17.6444 18.7038 18.2107C17.5379 18.7769 16.2363 19.0039 14.9475 18.8656C13.6587 18.7274 12.4349 18.2294 11.4158 17.4288C12.238 16.7825 12.9027 15.9581 13.3597 15.0177C13.8168 14.0773 14.0543 13.0455 14.0543 12C14.0543 10.9545 13.8168 9.92266 13.3597 8.98227C12.9027 8.04187 12.238 7.21748 11.4158 6.57124C12.4349 5.77057 13.6587 5.27264 14.9475 5.13438C16.2363 4.99611 17.5379 5.22308 18.7038 5.78935C19.8696 6.35562 20.8525 7.23834 21.5401 8.3366C22.2278 9.43487 22.5924 10.7044 22.5924 12Z" fill="#F79E1B"/>
<path d="M21.9333 16.2788V16.0565H22.023V16.0112H21.7946V16.0565H21.8843V16.2788H21.9333ZM22.3767 16.2788V16.0108H22.3067L22.2262 16.1951L22.1456 16.0108H22.0756V16.2788H22.125V16.0766L22.2005 16.2509H22.2518L22.3273 16.0762V16.2788H22.3767Z" fill="#F79E1B"/>
<g clip-path="url(#clip0_82_61)">
<path d="M48.1454 6.49187C45.7313 6.49187 43.5739 7.74316 43.5739 10.055C43.5739 12.7063 47.4001 12.8894 47.4001 14.2213C47.4001 14.7821 46.7574 15.2842 45.6597 15.2842C44.1019 15.2842 42.9375 14.5827 42.9375 14.5827L42.4394 16.9156C42.4394 16.9156 43.7806 17.5081 45.5614 17.5081C48.2008 17.5081 50.2777 16.1954 50.2777 13.844C50.2777 11.0425 46.4356 10.8648 46.4356 9.62858C46.4356 9.1892 46.9632 8.70786 48.0578 8.70786C49.2927 8.70786 50.3003 9.21803 50.3003 9.21803L50.7879 6.96484C50.7879 6.96484 49.6916 6.49187 48.1454 6.49187ZM26.0585 6.66194L26 7.00204C26 7.00204 27.0156 7.1879 27.9304 7.5587C29.1082 7.98385 29.1921 8.23138 29.3904 9.00014L31.5519 17.3328H34.4495L38.9134 6.66194H36.0225L33.1542 13.9171L31.9838 7.76726C31.8764 7.06343 31.3327 6.66194 30.6672 6.66194H26.0585ZM40.0759 6.66194L37.8081 17.3327H40.5648L42.8247 6.6619H40.0759V6.66194ZM55.4511 6.66194C54.7863 6.66194 54.4341 7.01783 54.1757 7.63973L50.1369 17.3327H53.0278L53.5871 15.7172H57.1091L57.4492 17.3327H60L57.7747 6.66194H55.4511ZM55.827 9.54486L56.684 13.5491H54.3882L55.827 9.54486Z" fill="#1434CB"/>
</g>
<g clip-path="url(#clip1_82_61)">
<path d="M86.902 3.32296H71.6409C66.8718 3.32296 62.9698 7.22495 62.9698 11.994C62.9698 16.7631 66.8718 20.6651 71.6409 20.6651H86.902C91.6711 20.6651 95.5731 16.7631 95.5731 11.994C95.5731 7.22495 91.6711 3.32296 86.902 3.32296Z" fill="white"/>
<path d="M86.902 4.02532C87.9729 4.02532 89.0134 4.23776 89.9932 4.65397C90.9427 5.05718 91.7925 5.6338 92.5295 6.36651C93.2622 7.09921 93.8388 7.95332 94.242 8.9028C94.6583 9.88263 94.8707 10.9232 94.8707 11.994C94.8707 13.0649 94.6583 14.1054 94.242 15.0853C93.8388 16.0348 93.2622 16.8845 92.5295 17.6216C91.7968 18.3543 90.9427 18.9309 89.9932 19.3341C89.0134 19.7503 87.9729 19.9628 86.902 19.9628H71.6409C70.57 19.9628 69.5295 19.7503 68.5496 19.3341C67.6001 18.9309 66.7504 18.3543 66.0133 17.6216C65.2806 16.8889 64.704 16.0348 64.3008 15.0853C63.8846 14.1054 63.6721 13.0649 63.6721 11.994C63.6721 10.9232 63.8846 9.88263 64.3008 8.9028C64.704 7.95332 65.2806 7.10355 66.0133 6.36651C66.746 5.6338 67.6001 5.05718 68.5496 4.65397C69.5295 4.23776 70.57 4.02532 71.6409 4.02532H86.902ZM86.902 3.32296H71.6409C66.8718 3.32296 62.9698 7.22495 62.9698 11.994C62.9698 16.7631 66.8718 20.6651 71.6409 20.6651H86.902C91.6711 20.6651 95.5731 16.7631 95.5731 11.994C95.5731 7.22495 91.6711 3.32296 86.902 3.32296Z" fill="#3C4043"/>
<path d="M78.5171 12.6097V15.2327H77.6846V8.7554H79.8914C80.4507 8.7554 80.9276 8.94183 81.3178 9.31469C81.7167 9.68754 81.9161 10.1428 81.9161 10.6804C81.9161 11.231 81.7167 11.6862 81.3178 12.0547C80.932 12.4233 80.455 12.6054 79.8914 12.6054H78.5171V12.6097ZM78.5171 9.55314V11.812H79.9088C80.2383 11.812 80.5157 11.6992 80.7325 11.4781C80.9536 11.257 81.0664 10.9882 81.0664 10.6847C81.0664 10.3856 80.9536 10.1211 80.7325 9.89999C80.5157 9.6702 80.2426 9.55748 79.9088 9.55748H78.5171V9.55314Z" fill="#3C4043"/>
<path d="M84.0926 10.6544C84.7082 10.6544 85.1938 10.8191 85.5493 11.1486C85.9048 11.4781 86.0826 11.929 86.0826 12.5013V15.2327H85.2892V14.6171H85.2545C84.912 15.1243 84.4524 15.3758 83.8801 15.3758C83.3902 15.3758 82.9827 15.2327 82.6532 14.9422C82.3237 14.6518 82.1589 14.2919 82.1589 13.8584C82.1589 13.3988 82.3324 13.0346 82.6792 12.7658C83.026 12.4927 83.4899 12.3583 84.0666 12.3583C84.5608 12.3583 84.9684 12.4493 85.2849 12.6314V12.4406C85.2849 12.1501 85.1721 11.9074 84.9424 11.7036C84.7126 11.4998 84.4438 11.4001 84.1359 11.4001C83.672 11.4001 83.3035 11.5952 83.0347 11.9897L82.302 11.5302C82.7052 10.9449 83.3035 10.6544 84.0926 10.6544ZM83.0174 13.8714C83.0174 14.0881 83.1084 14.2702 83.2948 14.4133C83.4769 14.5564 83.6937 14.6301 83.9408 14.6301C84.292 14.6301 84.6042 14.5 84.8773 14.2399C85.1505 13.9797 85.2892 13.6763 85.2892 13.3251C85.0291 13.1213 84.6692 13.0173 84.2053 13.0173C83.8671 13.0173 83.5853 13.0996 83.3599 13.26C83.1301 13.4291 83.0174 13.6329 83.0174 13.8714Z" fill="#3C4043"/>
<path d="M90.609 10.7975L87.8342 17.1794H86.9758L88.0076 14.9466L86.178 10.7975H87.0842L88.4022 13.9797H88.4195L89.7028 10.7975H90.609Z" fill="#3C4043"/>
<path d="M75.206 12.0808C75.206 11.8094 75.1817 11.5497 75.1366 11.2999H71.6474V12.7307L73.6569 12.7311C73.5754 13.2071 73.3131 13.6129 72.9112 13.8835V14.8117H74.1074C74.8058 14.1653 75.206 13.2097 75.206 12.0808Z" fill="#4285F4"/>
<path d="M72.9117 13.8835C72.5787 14.1081 72.15 14.2394 71.6483 14.2394C70.6793 14.2394 69.8573 13.5865 69.5629 12.7064H68.329V13.6637C68.9404 14.8768 70.1968 15.7092 71.6483 15.7092C72.6516 15.7092 73.4944 15.3793 74.1079 14.8113L72.9117 13.8835Z" fill="#34A853"/>
<path d="M69.4467 11.9962C69.4467 11.7491 69.4879 11.5102 69.5629 11.2856V10.3283H68.329C68.0762 10.8299 67.934 11.3962 67.934 11.9962C67.934 12.5962 68.0767 13.1625 68.329 13.6641L69.5629 12.7068C69.4879 12.4822 69.4467 12.2433 69.4467 11.9962Z" fill="#FABB05"/>
<path d="M71.6483 9.75259C72.1959 9.75259 72.6863 9.94119 73.0734 10.3097L74.1335 9.25054C73.4896 8.65093 72.6503 8.28284 71.6483 8.28284C70.1972 8.28284 68.9404 9.11527 68.329 10.3284L69.5629 11.2856C69.8573 10.4055 70.6793 9.75259 71.6483 9.75259Z" fill="#E94235"/>
</g>
<path d="M121.763 3.64551H100.337C100.248 3.64551 100.159 3.64551 100.07 3.64603C99.9944 3.64656 99.9193 3.6474 99.8441 3.64945C99.6803 3.65388 99.5151 3.66355 99.3533 3.69262C99.1889 3.72221 99.036 3.77046 98.8867 3.84643C98.7401 3.92103 98.6058 4.0186 98.4894 4.13504C98.3729 4.25147 98.2754 4.38555 98.2008 4.5324C98.1248 4.68162 98.0765 4.83462 98.0471 4.99911C98.0179 5.16094 98.0082 5.32615 98.0037 5.48981C98.0017 5.56493 98.0009 5.64005 98.0004 5.71516C97.9999 5.80442 98 5.89362 98 5.98304V18.0171C98 18.1065 97.9999 18.1956 98.0004 18.285C98.0009 18.3601 98.0017 18.4353 98.0037 18.5104C98.0082 18.6739 98.0179 18.8391 98.0471 19.0009C98.0765 19.1654 98.1248 19.3184 98.2008 19.4676C98.2754 19.6145 98.3729 19.7487 98.4894 19.865C98.6058 19.9816 98.7401 20.0792 98.8867 20.1536C99.036 20.2297 99.1889 20.278 99.3533 20.3076C99.5151 20.3365 99.6803 20.3463 99.8441 20.3507C99.9193 20.3524 99.9944 20.3534 100.07 20.3538C100.159 20.3545 100.248 20.3545 100.337 20.3545H121.763C121.852 20.3545 121.941 20.3545 122.03 20.3538C122.105 20.3534 122.18 20.3524 122.256 20.3507C122.419 20.3463 122.585 20.3365 122.747 20.3076C122.911 20.278 123.064 20.2297 123.213 20.1536C123.36 20.0792 123.494 19.9816 123.611 19.865C123.727 19.7487 123.824 19.6145 123.899 19.4676C123.975 19.3184 124.023 19.1654 124.053 19.0009C124.082 18.8391 124.091 18.6739 124.096 18.5104C124.098 18.4353 124.099 18.3601 124.099 18.285C124.1 18.1956 124.1 18.1065 124.1 18.0171V5.98304C124.1 5.89362 124.1 5.80442 124.099 5.71516C124.099 5.64005 124.098 5.56493 124.096 5.48981C124.091 5.32615 124.082 5.16094 124.053 4.99911C124.023 4.83462 123.975 4.68162 123.899 4.5324C123.824 4.38555 123.727 4.25147 123.611 4.13504C123.494 4.0186 123.36 3.92103 123.213 3.84643C123.064 3.77046 122.911 3.72221 122.747 3.69262C122.585 3.66355 122.419 3.65388 122.256 3.64945C122.18 3.6474 122.105 3.64656 122.03 3.64603C121.941 3.64551 121.852 3.64551 121.763 3.64551Z" fill="black"/>
<path d="M121.763 4.20245L122.027 4.20296C122.098 4.20346 122.169 4.20424 122.241 4.20619C122.366 4.20957 122.512 4.21633 122.648 4.24074C122.767 4.26206 122.866 4.29448 122.961 4.34298C123.055 4.39078 123.141 4.45341 123.217 4.52854C123.292 4.60418 123.355 4.6905 123.403 4.7856C123.452 4.88013 123.484 4.97894 123.505 5.09818C123.529 5.23287 123.536 5.37936 123.539 5.50502C123.541 5.57594 123.542 5.64687 123.543 5.71948C123.543 5.8073 123.543 5.89506 123.543 5.98305V18.0171C123.543 18.1051 123.543 18.1927 123.543 18.2824C123.542 18.3533 123.541 18.4243 123.539 18.4953C123.536 18.6208 123.529 18.7672 123.505 18.9035C123.484 19.0211 123.452 19.1199 123.403 19.2149C123.355 19.3098 123.292 19.396 123.217 19.4711C123.141 19.5468 123.055 19.6093 122.96 19.6575C122.866 19.7058 122.767 19.7382 122.649 19.7593C122.51 19.784 122.358 19.7908 122.244 19.7939C122.171 19.7956 122.1 19.7965 122.026 19.7969C121.939 19.7976 121.851 19.7976 121.763 19.7976H100.338C100.337 19.7976 100.335 19.7976 100.334 19.7976C100.248 19.7976 100.161 19.7976 100.073 19.7969C100.001 19.7965 99.9289 19.7956 99.8595 19.794C99.7422 19.7908 99.5899 19.784 99.4521 19.7594C99.3339 19.7382 99.2348 19.7058 99.139 19.6569C99.0447 19.6091 98.9589 19.5467 98.8832 19.4709C98.8081 19.3959 98.7456 19.3099 98.6974 19.2149C98.6491 19.12 98.6167 19.0209 98.5955 18.9019C98.5709 18.7659 98.5642 18.62 98.5608 18.4954C98.5589 18.4241 98.5581 18.3527 98.5576 18.2818L98.5573 18.0724L98.5573 18.0171V5.98305L98.5573 5.92777L98.5576 5.71882C98.5581 5.64747 98.5589 5.57613 98.5608 5.50484C98.5642 5.3801 98.5709 5.23421 98.5957 5.09706C98.6167 4.97913 98.6491 4.88001 98.6976 4.78462C98.7455 4.69034 98.808 4.60428 98.8836 4.52878C98.9588 4.45353 99.0449 4.39098 99.1398 4.34273C99.2346 4.29446 99.3338 4.26206 99.4521 4.24079C99.5883 4.21631 99.7345 4.20957 99.8597 4.20617C99.931 4.20424 100.002 4.20346 100.073 4.20297L100.338 4.20245H121.763Z" fill="white"/>
<path d="M105.125 9.26545C105.349 8.98593 105.5 8.61061 105.46 8.22709C105.133 8.24336 104.734 8.44291 104.503 8.72265C104.295 8.9622 104.112 9.35323 104.16 9.72068C104.527 9.75253 104.894 9.53712 105.125 9.26545Z" fill="black"/>
<path d="M105.456 9.79241C104.923 9.76064 104.469 10.0951 104.215 10.0951C103.96 10.0951 103.57 9.80842 103.148 9.81615C102.599 9.82421 102.09 10.1346 101.811 10.6283C101.238 11.616 101.66 13.0811 102.217 13.8855C102.488 14.2834 102.814 14.7216 103.244 14.7059C103.65 14.6899 103.809 14.443 104.302 14.443C104.796 14.443 104.939 14.7059 105.369 14.6979C105.814 14.6899 106.093 14.2998 106.364 13.9014C106.674 13.4477 106.801 13.0097 106.809 12.9857C106.801 12.9777 105.95 12.651 105.942 11.6716C105.934 10.8515 106.61 10.4614 106.642 10.4372C106.26 9.87213 105.663 9.80842 105.456 9.79241Z" fill="black"/>
<path d="M110.1 8.68253C111.259 8.68253 112.066 9.48152 112.066 10.6448C112.066 11.8122 111.242 12.6154 110.071 12.6154H108.787V14.6563H107.86V8.68253L110.1 8.68253ZM108.787 11.8371H109.851C110.659 11.8371 111.118 11.4024 111.118 10.649C111.118 9.89555 110.659 9.46499 109.856 9.46499H108.787V11.8371Z" fill="black"/>
<path d="M112.308 13.4185C112.308 12.6568 112.892 12.189 113.927 12.131L115.119 12.0607V11.7254C115.119 11.241 114.792 10.9512 114.246 10.9512C113.728 10.9512 113.405 11.1995 113.327 11.5887H112.482C112.532 10.8021 113.202 10.2226 114.279 10.2226C115.335 10.2226 116.009 10.7814 116.009 11.6549V14.6563H115.152V13.9401H115.132C114.879 14.4245 114.329 14.7308 113.757 14.7308C112.904 14.7308 112.308 14.2009 112.308 13.4185ZM115.119 13.0253V12.6817L114.047 12.7479C113.513 12.7852 113.211 13.0211 113.211 13.3937C113.211 13.7745 113.525 14.0229 114.006 14.0229C114.631 14.0229 115.119 13.5924 115.119 13.0253Z" fill="black"/>
<path d="M116.819 16.2585V15.534C116.885 15.5505 117.034 15.5505 117.108 15.5505C117.522 15.5505 117.746 15.3767 117.882 14.9296C117.882 14.9213 117.961 14.6646 117.961 14.6605L116.388 10.3012H117.357L118.458 13.8449H118.474L119.576 10.3012H120.519L118.888 14.884C118.516 15.9397 118.085 16.2791 117.183 16.2791C117.108 16.2791 116.885 16.2708 116.819 16.2585Z" fill="black"/>
<rect x="127.419" y="3.61597" width="49.3192" height="16.768" rx="8.38402" fill="white"/>
<rect x="127.419" y="3.61597" width="49.3192" height="16.768" rx="8.38402" stroke="#0033A0" stroke-width="0.638779"/>
<path fill-rule="evenodd" clip-rule="evenodd" d="M148.18 11.9835C148.18 14.0342 146.563 15.7506 144.452 16.0998V13.7954C144.452 12.7074 143.559 11.818 142.47 11.818H139.426C138.555 11.818 137.84 11.1111 137.84 10.2407V7.80364H143.662C146.147 7.80258 148.18 9.68449 148.18 11.9835Z" fill="#E63934"/>
<mask id="mask0_82_61" style="mask-type:luminance" maskUnits="userSpaceOnUse" x="131" y="7" width="12" height="10">
<path d="M131.997 7.84341H142.838V16.1964H131.997V7.84341Z" fill="white"/>
</mask>
<g mask="url(#mask0_82_61)">
<path fill-rule="evenodd" clip-rule="evenodd" d="M142.839 13.7407V16.1958H136.516C134.031 16.1958 131.997 14.315 131.997 12.0149C131.997 9.80285 133.881 7.97719 136.238 7.84239V10.1945C136.238 11.2814 137.129 12.1582 138.219 12.1582H141.253C142.125 12.1582 142.839 12.8704 142.839 13.7407Z" fill="#00466E"/>
</g>
<path d="M151.874 16V7.79265H155.112C155.735 7.79265 156.265 7.91154 156.703 8.14932C157.141 8.38443 157.475 8.7117 157.705 9.13116C157.937 9.54793 158.054 10.0288 158.054 10.5739C158.054 11.1189 157.936 11.5998 157.701 12.0166C157.466 12.4333 157.125 12.7579 156.679 12.9904C156.235 13.2228 155.698 13.339 155.068 13.339H153.004V11.9484H154.787C155.121 11.9484 155.397 11.891 155.613 11.7761C155.832 11.6585 155.995 11.4969 156.102 11.2912C156.211 11.0828 156.266 10.8437 156.266 10.5739C156.266 10.3013 156.211 10.0636 156.102 9.86052C155.995 9.6548 155.832 9.49584 155.613 9.38363C155.394 9.26875 155.116 9.21131 154.779 9.21131H153.609V16H151.874ZM160.739 16.1162C160.346 16.1162 159.996 16.0481 159.689 15.9118C159.381 15.7729 159.138 15.5685 158.959 15.2987C158.783 15.0262 158.695 14.6869 158.695 14.2808C158.695 13.9388 158.758 13.6516 158.883 13.4192C159.009 13.1867 159.18 12.9997 159.396 12.8581C159.612 12.7165 159.858 12.6097 160.133 12.5375C160.411 12.4654 160.702 12.4146 161.007 12.3852C161.365 12.3478 161.654 12.3131 161.873 12.281C162.092 12.2463 162.251 12.1956 162.35 12.1288C162.448 12.062 162.498 11.9631 162.498 11.8322V11.8082C162.498 11.5544 162.418 11.358 162.257 11.2191C162.1 11.0801 161.875 11.0107 161.584 11.0107C161.277 11.0107 161.032 11.0788 160.851 11.2151C160.669 11.3486 160.549 11.517 160.49 11.72L158.911 11.5918C158.991 11.2177 159.149 10.8945 159.384 10.6219C159.619 10.3468 159.922 10.1357 160.294 9.98876C160.668 9.83915 161.101 9.76434 161.592 9.76434C161.934 9.76434 162.261 9.80441 162.574 9.88456C162.889 9.96471 163.168 10.0889 163.412 10.2573C163.657 10.4256 163.851 10.642 163.993 10.9065C164.134 11.1683 164.205 11.4822 164.205 11.8482V16H162.586V15.1464H162.538C162.439 15.3388 162.307 15.5084 162.141 15.6554C161.976 15.7996 161.776 15.9132 161.544 15.996C161.312 16.0761 161.043 16.1162 160.739 16.1162ZM161.227 14.938C161.479 14.938 161.7 14.8886 161.893 14.7897C162.085 14.6882 162.236 14.552 162.346 14.381C162.455 14.21 162.51 14.0163 162.51 13.7999V13.1467C162.456 13.1814 162.383 13.2135 162.289 13.2428C162.199 13.2696 162.096 13.2949 161.981 13.319C161.866 13.3404 161.751 13.3604 161.636 13.3791C161.521 13.3951 161.417 13.4098 161.324 13.4232C161.123 13.4526 160.948 13.4993 160.799 13.5634C160.649 13.6276 160.533 13.7144 160.45 13.8239C160.367 13.9308 160.326 14.0644 160.326 14.2247C160.326 14.4571 160.41 14.6348 160.578 14.7577C160.749 14.8779 160.966 14.938 161.227 14.938ZM166.363 18.3083C166.147 18.3083 165.944 18.291 165.754 18.2562C165.567 18.2242 165.412 18.1827 165.289 18.132L165.674 16.8576C165.874 16.9191 166.054 16.9524 166.215 16.9578C166.378 16.9631 166.518 16.9257 166.636 16.8456C166.756 16.7654 166.853 16.6292 166.928 16.4368L167.028 16.1763L164.82 9.84449H166.616L167.89 14.3649H167.954L169.24 9.84449H171.048L168.655 16.6652C168.54 16.9965 168.384 17.2851 168.186 17.5309C167.991 17.7793 167.744 17.9704 167.445 18.1039C167.146 18.2402 166.785 18.3083 166.363 18.3083Z" fill="#0033A0"/>
<rect width="18" height="18" transform="translate(180.058 3.00001)" fill="#FADB5F"/>
<path d="M187.562 7.96794C187.816 8.11206 188.021 8.32914 188.15 8.5911C188.292 8.86542 188.362 9.19482 188.362 9.5793V12.0791H187.285V9.72474C187.285 9.38634 187.2 9.12606 187.031 8.9439C186.862 8.76174 186.631 8.67078 186.339 8.67102C186.042 8.67102 185.807 8.76198 185.635 8.9439C185.463 9.12582 185.377 9.3861 185.377 9.72474V12.0784H184.301V6.38646H185.377V8.3481C185.522 8.15855 185.713 8.00901 185.931 7.91358C186.173 7.806 186.436 7.75208 186.7 7.75554C187.001 7.75015 187.298 7.82336 187.562 7.96794Z" fill="#1A1C21"/>
<path d="M191.035 7.94426C191.292 7.8102 191.579 7.74275 191.869 7.74806C192.218 7.74361 192.56 7.8369 192.858 8.01734C193.158 8.20233 193.401 8.46739 193.558 8.7827C193.73 9.11342 193.816 9.4967 193.816 9.93254C193.816 10.3684 193.73 10.7543 193.558 11.0903C193.401 11.4099 193.159 11.68 192.858 11.8708C192.562 12.0559 192.219 12.1521 191.87 12.148C191.582 12.154 191.297 12.0878 191.042 11.9554C190.816 11.8375 190.618 11.6722 190.462 11.4708V14.1093H189.385V7.81718H190.462V8.43278C190.612 8.22763 190.809 8.06036 191.035 7.94426ZM192.558 9.26726C192.462 9.08923 192.318 8.94142 192.143 8.8403C191.973 8.74359 191.78 8.69318 191.585 8.69414C191.391 8.69372 191.201 8.74558 191.035 8.84426C190.859 8.94821 190.715 9.09855 190.619 9.27878C190.516 9.48663 190.462 9.71574 190.462 9.94802C190.462 10.1803 190.516 10.4094 190.619 10.6173C190.716 10.7974 190.859 10.9477 191.035 11.0518C191.203 11.1507 191.394 11.2026 191.589 11.2019C191.784 11.2012 191.975 11.148 192.143 11.0478C192.318 10.9416 192.461 10.7901 192.558 10.6093C192.663 10.4195 192.715 10.1939 192.716 9.93254C192.722 9.70088 192.667 9.47167 192.558 9.26726Z" fill="#1A1C21"/>
<path d="M188.689 17.6134C186.808 17.6134 185.061 16.8351 183.769 15.4218C183.674 15.3175 183.624 15.1797 183.63 15.0385C183.636 14.8973 183.698 14.7643 183.802 14.6688C183.906 14.5733 184.044 14.5232 184.186 14.5294C184.327 14.5355 184.46 14.5975 184.555 14.7018C185.643 15.8919 187.111 16.5471 188.689 16.5471C190.647 16.5471 192.446 15.5211 193.5 13.8021C193.536 13.7417 193.584 13.689 193.641 13.6472C193.697 13.6053 193.762 13.5751 193.83 13.5584C193.899 13.5416 193.97 13.5385 194.039 13.5494C194.109 13.5603 194.175 13.5848 194.236 13.6217C194.296 13.6585 194.348 13.7069 194.389 13.764C194.43 13.8211 194.46 13.8858 194.476 13.9544C194.492 14.023 194.494 14.0941 194.482 14.1635C194.47 14.233 194.445 14.2994 194.408 14.359C193.158 16.3974 191.02 17.6134 188.689 17.6134Z" fill="#1A1C21"/>
<defs>
<clipPath id="clip0_82_61">
<rect width="34" height="11.0432" fill="white" transform="translate(26 6.4784)"/>
</clipPath>
<clipPath id="clip1_82_61">
<rect width="32.5692" height="17.2332" fill="white" transform="translate(63 3.3834)"/>
</clipPath>
</defs>
</svg>
